# xmcd CD database file
#
# Track frame offsets:
#	150
#	25627
#	43027
#	58919
#	74782
#	91282
#	130695
#	147183
#
# Disc length: 2211 seconds
#
# Revision: 0
# Processed by: cddbd v1.5.1PL0 Copyright (c) Steve Scherf et al.
# Submitted via: CDex 1.51
#
DISCID=7108a108
DTITLE=Various Artist - Bluebird: Take Flight, Spring 2002
DYEAR=2002
DGENRE=Jazz
TTITLE0=Poses - Dave Douglas
TTITLE1=Tijuana Gift Shop - Charles Mingus
TTITLE2=Star Dust - Artie Shaw
TTITLE3=I Want To e Evil - Eartha Kitt
TTITLE4=Desmond Blue - Paul Desmond
TTITLE5=Asia Minor - Tom Harrell
TTITLE6=Every Day I Have The Blues - Joe Williams
TTITLE7=Angel - Gil Evans
EXTD=YEAR: 2002
EXTT0=
EXTT1=
EXTT2=
EXTT3=
EXTT4=
EXTT5=
EXTT6=
EXTT7=
PLAYORDER=
